<?xml version="1.0" encoding="utf-8"?>
<!-- Generator: Adobe Illustrator 27.4.0, SVG Export Plug-In . SVG Version: 6.00 Build 0)  -->
<svg version="1.1" id="Capa_1" xmlns="http://www.w3.org/2000/svg" xmlns:xlink="http://www.w3.org/1999/xlink" x="0px" y="0px"
	 viewBox="0 0 324.29 136.67" style="enable-background:new 0 0 324.29 136.67;" xml:space="preserve">
<style type="text/css">
	.st0{fill-rule:evenodd;clip-rule:evenodd;fill:#FFFFFF;}
</style>
<path class="st0" d="M284.24,81.69c0-2.67-0.51-4.29-1.54-4.83c-1.03-0.54-3.37-1.04-7.03-1.5v-1.46l16.04-2.09v26.19h25.13V71.81
	h7.46v57.75h-7.46v-28.22H291.7v28.22h-7.46V81.69z M203.19,107.09h19.48l-9.73-26.12L203.19,107.09z M207.53,81.96
	c0.4-1.09,0.72-1.96,0.94-2.62c0.23-0.66,0.34-1.33,0.34-2.01c0-1.66-2.2-3-6.6-4.03v-1.46h14.75l22.13,57.72l-8.35,0.02
	l-7.16-19.14h-21.64l-6.76,19.13h-5.4L207.53,81.96z M71.04,31.83v34.6h30.81c-0.05-2.31-0.18-4.52-0.38-6.62l-0.02-0.24l-0.03-0.25
	l-0.03-0.28l-0.02-0.21l-0.04-0.31l-0.02-0.18c-0.93-7.86-3.03-13.91-6.29-18.17c-4.41-5.78-11.07-8.76-19.97-8.95
	C73.37,31.28,72.03,31.48,71.04,31.83z M-0.47,71.92v58.01h66.02v-18.72H46.52v-2.15c5.22-1.09,8.44-2.25,9.67-3.47
	c1.21-1.2,1.82-4.05,1.84-8.55V71.92H-0.47z M71.04,105.67V71.92h30.79c-0.06,2.01-0.18,3.93-0.36,5.77l-0.02,0.24l-0.03,0.25
	l-0.03,0.27l-0.02,0.21l-0.04,0.31l-0.02,0.18c-0.93,7.86-3.03,13.91-6.29,18.17c-4.41,5.78-11.07,8.76-19.97,8.95
	C73.37,106.23,72.03,106.03,71.04,105.67z M137.28,71.92v4.6l8.58,42.27l13.62-46.96h7.21l13.58,44.77l9.55-44.77h4.56l-12.26,58.58
	h-4.8L161.7,79.3l-14.84,51.12h-6.18l-3.41-16.81v5.09c-1.16,10.06-9.77,17.93-20.13,17.93h-8.8v0.04H71.04v-25.46h0.07
	c14.02-0.03,24.52-2.8,31.51-8.33c5.8-4.59,9.2-13.16,10.21-25.73l0.01-0.09l0.05-0.63l0.01-0.09l0.04-0.63l0-0.09l0.04-0.64l0-0.1
	l0.03-0.64l0.01-0.1l0.03-0.65l0-0.11c0.02-0.48,0.03-0.97,0.05-1.47h8.97v-0.08h14.25l0.02,0.08H137.28z M144.5,56.68v0.11l0,0.06
	v0.05c0.03,2.63,0.37,4.31,1.03,5.03c0.63,0.69,2.04,1.06,4.22,1.11c6.66-0.13,11.64-2.17,14.95-6.11
	c2.46-2.93,4.03-7.11,4.72-12.54l0.03-0.21l0.02-0.15l0.02-0.18c0.21-1.9,0.33-3.94,0.34-6.1l0-0.3v-0.08l0-0.3
	c-0.01-2.17-0.13-4.2-0.34-6.1l-0.02-0.18l-0.02-0.15l-0.03-0.21c-0.69-5.42-2.26-9.6-4.72-12.53c-3.31-3.94-8.29-5.98-14.95-6.11
	c-2.18,0.06-3.59,0.43-4.22,1.11c-0.66,0.72-1.01,2.39-1.03,5.03v0.05l0,0.06V56.68z M137.28,66.42h9.37
	c10.57,0,18.49-1.9,23.74-5.69c4.42-3.19,6.99-9.21,7.69-18.06v0l0-0.06l0.03-0.43l0.01-0.06l0.01-0.2c0.08-1.27,0.13-2.6,0.14-3.98
	l0-0.46v-0.08l0-0.47c-0.01-1.38-0.06-2.71-0.14-3.98l-0.01-0.2l-0.01-0.06l-0.03-0.43l0-0.06v0c-0.7-8.85-3.26-14.87-7.69-18.06
	c-5.26-3.79-13.17-5.69-23.74-5.69H71.04V26.3h0.07c14.02,0.02,24.52,2.8,31.51,8.32c5.8,4.59,9.2,13.16,10.21,25.73l0.01,0.09
	l0.05,0.63l0.01,0.09l0.04,0.63l0,0.09l0.04,0.64l0,0.1l0.03,0.64l0.01,0.1l0.03,0.65l0,0.11c0.03,0.76,0.05,1.53,0.07,2.31h24.16
	V66.42z M194.14,43.84h19.57l-9.78-26.24L194.14,43.84z M198.5,18.59c0.4-1.09,0.72-1.97,0.95-2.63c0.23-0.66,0.34-1.33,0.34-2.02
	c0-1.67-2.21-3.02-6.63-4.05V8.42h14.82l22.23,57.99l-8.39,0.02l-7.19-19.23h-21.74l-6.8,19.22h-5.43L198.5,18.59z M243.72,34.53
	h2.33c4.88,0,8.88-0.69,11.98-2.07c3.1-1.38,4.65-4.71,4.65-10c0-3.79-1.21-6.52-3.62-8.19c-2.41-1.67-5.49-2.5-9.22-2.5
	c-2.82,0-4.54,0.31-5.17,0.95c-0.63,0.63-0.95,2.24-0.95,4.83V34.53z M236.22,17.56c0-3.33-0.69-5.29-2.07-5.86
	c-1.38-0.57-3.59-1.18-6.64-1.81V8.42h24.39c6.03,0,10.74,1.05,14.13,3.14c3.39,2.1,5.08,6.02,5.08,11.76
	c0,4.54-1.36,7.86-4.09,9.95c-2.73,2.1-6.34,3.46-10.81,4.09l17.41,29.04h-8.45L248,37.91l-4.28-0.01v28.52h-7.5V17.56z
	 M58.03,66.43H7.51V39.36H7.44V22c0-10.77,8.81-19.58,19.58-19.58h3.01c0.06,0,0.12,0,0.19,0h35.33V26.3H46.52v2.14
	c5.22,1.09,8.44,2.25,9.67,3.47c1.21,1.2,1.82,4.05,1.84,8.55V66.43z M271.58,78.27c-1.77-0.8-3.96-1.59-6.57-2.36
	c-2.6-0.77-5.13-1.16-7.59-1.16c-3.09,0-5.59,0.79-7.51,2.36c-1.91,1.57-2.87,3.63-2.87,6.2c0,3.66,2.35,6.82,7.03,9.51
	c4.69,2.69,9.32,5.27,13.9,7.79c4.91,3.55,7.37,7.96,7.37,13.28c0,5.53-1.97,9.68-5.92,12.41c-3.95,2.74-8.92,4.12-14.92,4.12
	c-2.75,0-5.23-0.16-7.46-0.49c-2.23-0.33-4.32-0.72-6.26-1.14v-5.92c1.83,0.84,4.15,1.66,6.95,2.47c2.8,0.81,5.46,1.21,7.97,1.21
	c8.01,0,12.01-3.63,12.01-10.88c0-3.93-2.37-7.36-7.12-10.28c-4.4-2.44-8.8-4.9-13.21-7.36c-4.8-3.37-7.21-7.59-7.21-12.68
	c0-4.56,1.67-8.12,5.02-10.65c3.34-2.54,7.9-3.82,13.68-3.82c2.69,0,4.89,0.1,6.6,0.3c1.72,0.2,3.75,0.56,6.09,1.07V78.27z"/>
</svg>
